# xmcd CD database file
#
# Track frame offsets:
#	150
#	18564
#	37563
#	51092
#	71340
#	89263
#	107692
#	125040
#	144643
#	170604
#	189402
#	203713
#
# Disc length: 2991 seconds
#
# Revision: 1
# Processed by: cddbd v1.5.2PL0 Copyright (c) Steve Scherf et al.
# Submitted via: CDex 1.51
#
DISCID=9f0bad0c
DTITLE=John Campbelljohn Trio - Live
DYEAR=1900
DGENRE=Blues
TTITLE0=no philosopher
TTITLE1=rollin` and tumblin`
TTITLE2=honey , i`ve had my fill
TTITLE3=heart like a stone
TTITLE4=excuse me behavior
TTITLE5=i`d rather be rich than famous
TTITLE6=chicken stuff
TTITLE7=you don´t have to go
TTITLE8=the court of love
TTITLE9=ready for a riot
TTITLE10=i wanna get up
TTITLE11=baby boomer blues
EXTD=
EXTT0=
EXTT1=
EXTT2=
EXTT3=
EXTT4=
EXTT5=
EXTT6=
EXTT7=
EXTT8=
EXTT9=
EXTT10=
EXTT11=
PLAYORDER=
